<?xml version="1.0" encoding="UTF-8" standalone="no"?>
<!-- Created with Inkscape (http://www.inkscape.org/) -->

<svg
   width="212.58189mm"
   height="104.03533mm"
   viewBox="0 0 212.58189 104.03533"
   version="1.1"
   id="svg5"
   xml:space="preserve"
   xmlns:inkscape="http://www.inkscape.org/namespaces/inkscape"
   xmlns:sodipodi="http://sodipodi.sourceforge.net/DTD/sodipodi-0.dtd"
   xmlns="http://www.w3.org/2000/svg"
   xmlns:svg="http://www.w3.org/2000/svg"><sodipodi:namedview
     id="namedview7"
     pagecolor="#505050"
     bordercolor="#eeeeee"
     borderopacity="1"
     inkscape:showpageshadow="0"
     inkscape:pageopacity="0"
     inkscape:pagecheckerboard="0"
     inkscape:deskcolor="#505050"
     inkscape:document-units="mm"
     showgrid="false" /><defs
     id="defs2" /><g
     inkscape:label="Layer 1"
     inkscape:groupmode="layer"
     id="layer1"
     transform="translate(1658.5477,653.81304)"><path
       id="path12463"
       style="fill:#ffffff;stroke-width:0.668594"
       d="m -1563.5194,-653.81279 c -8.6346,-0.029 -17.2594,2.4601 -24.8241,7.4891 l -4.8237,3.2058 3.1678,3.2163 3.1681,3.2163 2.7369,-1.8778 c 7.6372,-5.2349 13.983,-7.0864 22.5481,-6.5828 6.4474,0.3791 11.2539,2.0109 17.1498,5.8215 l 4.0038,2.5869 3.1039,-3.1523 3.104,-3.151 -2.9904,-2.1482 c -7.9489,-5.7083 -17.1525,-8.5928 -26.3442,-8.6238 z m -76.2286,10.3371 -1.8938,1.4652 c -6.5239,5.0483 -13.8273,17.2818 -15.8777,26.5961 -1.2344,5.6083 -1.3817,15.3259 -0.3095,20.3948 2.8493,13.4679 12.446,22.5343 25.994,24.5591 11.7177,1.7511 22.1307,-0.6541 27.3525,-6.3191 2.7324,-2.9644 4.7402,-8.0569 4.7402,-12.0229 0,-5.7328 -3.3495,-11.6234 -7.9684,-14.0117 l -2.1545,-1.1139 2.9995,-2.6404 c 4.0629,-3.5763 5.7862,-7.3168 5.7862,-12.5584 0,-9.4761 -6.527,-14.8057 -18.133,-14.8057 -10.7541,0 -17.9773,6.1071 -17.9672,15.1896 0,4.5506 1.1748,8.4153 2.4042,7.9435 0.5382,-0.2064 2.9285,-0.7349 5.3108,-1.1739 3.906,-0.7198 4.2889,-0.9325 3.8979,-2.1638 -0.7406,-2.3335 -0.4768,-6.3488 0.4938,-7.5191 0.5097,-0.6147 1.9208,-1.5321 3.1352,-2.0397 4.9907,-2.0862 10.6765,1.6046 9.9231,6.4417 -0.6037,3.8769 -4.3893,6.6622 -14.0925,10.3697 l -8.402,3.2098 2.1065,3.7596 c 2.8054,5.0067 2.5613,4.8424 5.5915,3.7634 4.2535,-1.5147 9.7429,-1.286 12.4277,0.5184 5.6875,3.8224 3.4214,12.4489 -3.7975,14.4531 -3.7363,1.0374 -10.8302,0.906 -14.8041,-0.2742 -4.3793,-1.3005 -9.6039,-5.9577 -11.8402,-10.5552 -2.2945,-4.7164 -3.1573,-11.3936 -2.3271,-18.0128 1.1419,-9.1073 4.1436,-14.9747 11.0553,-21.6105 l 4.2218,-4.0533 -3.937,-3.8953 z m 142.601,9.5275 c -3.3863,0.042 -6.7385,1.1831 -8.5834,3.2542 l -1.2629,1.4168 -2.2592,-1.9836 c -2.7449,-2.4102 -4.6225,-2.9338 -9.0075,-2.5124 -6.18,0.5938 -9.5475,4.694 -9.4829,11.5476 0.035,3.7511 1.182,9.0194 1.9626,9.0194 0.1718,0 2.2346,-0.483 4.5847,-1.0734 4.1222,-1.0354 4.2506,-1.132 3.6472,-2.7187 -1.4919,-3.9243 0.025,-7.5739 3.1313,-7.5739 2.1128,0 2.9291,1.85 2.9291,6.6415 v 4.0559 h 4.6802 4.6802 v -4.2988 c 0,-4.7375 0.9582,-6.3986 3.6877,-6.3986 3.4566,0 4.8347,5.766 2.3517,9.8382 -1.4075,2.3086 -5.4242,4.6158 -11.3883,6.5423 -12.6344,4.081 -18.3,10.311 -18.2374,20.0539 0.063,10.0024 5.6153,16.1908 15.8975,17.7242 4.9417,0.737 6.1903,0.7073 11.7279,-0.2807 5.1136,-0.9124 11.5566,-3.7111 15.0836,-6.5514 4.816,-3.8783 4.4235,-4.0041 4.1708,1.3502 l -0.2274,4.8134 h 5.5159 l 5.5159,-10e-4 v -31.0903 -31.0896 h -5.683 -5.6832 v 19.6138 19.6139 l -4.5128,4.3223 c -5.3297,5.1046 -7.921,6.7617 -12.8247,8.202 -10.0467,2.951 -17.8489,-0.1657 -17.6682,-7.0581 0.1239,-4.7481 3.0535,-7.4285 10.9365,-10.008 6.4859,-2.1222 13.1869,-5.8325 15.4352,-8.5454 6.1768,-7.4533 4.7736,-21.1742 -2.5894,-25.3126 -1.8776,-1.0551 -4.2112,-1.5407 -6.5279,-1.5121 z m -67.1103,0.015 c -13.1429,0 -22.7879,5.2793 -27.1954,14.8866 -1.6774,3.6561 -1.9119,4.9489 -1.9119,10.52 0,5.5518 0.2375,6.8702 1.8868,10.465 1.0382,2.262 2.7623,4.9498 3.8315,5.9743 1.688,1.6171 1.946,2.3533 1.9511,5.5825 0.025,8.4879 5.127,14.2061 14.3681,16.071 v -10e-4 c 3.8422,0.7755 4.9688,0.7726 9.4048,-0.033 7.3017,-1.3255 11.4795,-4.7953 13.1081,-10.8842 0.9529,-3.5634 0.114,-7.9914 -2.109,-11.1115 -1.2606,-1.7704 -1.2596,-1.8143 0.025,-3.1 1.293,-1.2932 1.2729,-1.3338 -2.3218,-4.8839 l -3.6251,-3.5807 -1.8935,1.4822 c -1.0408,0.8153 -4.2433,3.7672 -7.1167,6.5592 l -5.2235,5.0759 3.3051,3.3064 3.3065,3.3051 2.0213,-1.4952 c 2.3571,-1.7427 3.4866,-1.3342 3.4866,1.2601 0,2.7155 -2.5069,4.7279 -6.4157,5.1503 -9.2431,0.9989 -13.5536,-8.6626 -6.8543,-15.362 2.8936,-2.8937 2.9222,-2.7224 -1.2522,-7.6288 l -1.8764,-2.2042 -2.7567,2.3596 -2.7567,2.3584 -0.9037,-2.1599 c -1.4213,-3.3969 -1.1154,-9.6933 0.6333,-13.0336 1.7376,-3.3189 5.8669,-6.5403 9.7104,-7.5752 1.4843,-0.3997 5.4337,-0.6239 8.7765,-0.4989 4.899,0.1832 6.7221,0.5564 9.3995,1.9262 6.5986,3.3759 9.5511,10.959 7.6693,19.696 -1.3667,6.3458 -1.484,6.0788 3.8273,8.6369 l 4.8303,2.327 1.3568,-4.3915 c 2.7854,-9.0185 2.3887,-18.9609 -1.0249,-25.6978 -4.4625,-8.8059 -13.8115,-13.3013 -27.6617,-13.3013 z m 107.594,0.6686 v 31.0896 31.0896 h 5.3487 5.3488 v -31.0896 -31.0896 h -5.3488 z m -109.2276,69.4384 c -3.1295,0.043 -6.1468,2.2023 -6.8164,5.7718 -0.5469,2.9156 1.1997,6.19821 3.9306,7.38592 2.7157,1.18121 3.351,1.18357 6.1088,0.0314 2.7651,-1.15543 3.7097,-2.78845 3.7097,-6.41562 0,-2.1699 -0.4238,-3.1922 -1.9548,-4.7233 -1.4318,-1.4319 -3.2222,-2.0744 -4.9779,-2.0501 z" /></g></svg>
