<?xml version="1.0" encoding="UTF-8" standalone="no"?>
<!-- Created with Inkscape (http://www.inkscape.org/) -->

<svg
   version="1.1"
   id="svg2"
   width="461.62625"
   height="397.34525"
   viewBox="0 0 461.62625 397.34525"
   sodipodi:docname="check.png"
   xmlns:inkscape="http://www.inkscape.org/namespaces/inkscape"
   xmlns:sodipodi="http://sodipodi.sourceforge.net/DTD/sodipodi-0.dtd"
   xmlns="http://www.w3.org/2000/svg"
   xmlns:svg="http://www.w3.org/2000/svg">
  <defs
     id="defs6">
    <inkscape:path-effect
       effect="bspline"
       id="path-effect385"
       is_visible="true"
       lpeversion="1"
       weight="33.333333"
       steps="2"
       helper_size="0"
       apply_no_weight="true"
       apply_with_weight="true"
       only_selected="false" />
    <inkscape:path-effect
       effect="bspline"
       id="path-effect327"
       is_visible="true"
       lpeversion="1"
       weight="33.333333"
       steps="2"
       helper_size="0"
       apply_no_weight="true"
       apply_with_weight="true"
       only_selected="false" />
  </defs>
  <sodipodi:namedview
     id="namedview4"
     pagecolor="#505050"
     bordercolor="#eeeeee"
     borderopacity="1"
     inkscape:showpageshadow="0"
     inkscape:pageopacity="0"
     inkscape:pagecheckerboard="0"
     inkscape:deskcolor="#505050"
     showgrid="false" />
  <g
     inkscape:groupmode="layer"
     inkscape:label="Image"
     id="g8"
     transform="translate(-45.464929,-61.578614)">
    <g
       id="g1843">
      <path
         style="fill:#4d4d4d;fill-opacity:1;fill-rule:evenodd;stroke-width:1.3;stroke-linecap:round;stroke-linejoin:round;paint-order:stroke markers fill"
         d="m 287.78396,81.327199 c 0,0 25.3949,-18.889824 25.3949,-18.889824 0,0 -241.311625,-0.373748 -241.311625,-0.373748 -3.153975,1.095023 -6.307367,2.189845 -9.2089,3.704848 -2.901532,1.515003 -5.550109,3.449833 -7.67785,5.415157 -2.12774,1.965324 -3.734254,3.960775 -5.001352,5.942332 -1.267097,1.981556 -2.1946,3.948784 -2.882964,5.89384 -0.688365,1.945056 -1.137588,3.86753 -1.369551,61.806936 -0.231963,57.9394 -0.246826,171.88986 -0.261689,285.8436 0.416488,1.91745 0.833228,3.83606 1.43979,5.76993 0.606562,1.93388 1.402929,3.88406 2.381545,5.74339 0.978616,1.85934 2.139156,3.62778 3.611861,5.33535 1.472706,1.70758 3.257208,3.35439 4.920665,4.65803 1.663458,1.30364 3.205646,2.26426 4.811434,3.10471 1.605788,0.84045 3.275035,1.56088 4.785724,2.08963 1.510689,0.52874 2.862761,0.86599 60.931932,1.09273 58.06916,0.22674 172.84997,0.34324 287.63408,0.45974 1.94339,-0.49048 3.88748,-0.98114 6.20624,-1.92213 2.31875,-0.94099 5.01308,-2.33241 7.37308,-3.92554 2.36,-1.59314 4.38585,-3.38802 5.95847,-5.23389 1.57261,-1.84586 2.69216,-3.74296 3.82484,-6.05802 1.13268,-2.31506 2.27845,-5.04814 2.84477,-7.13849 0.56632,-2.09036 0.55296,-3.53839 0.62361,-38.20416 0.0707,-34.66576 0.22532,-102.5475 0.38,-170.4296 0,0 -18.88074,24.99176 -18.88074,24.99176 0,0 -0.28802,180.15175 -0.28802,180.15175 -0.2925,1.0041 -0.58519,2.00884 -1.13187,2.9604 -0.54668,0.95155 -1.34765,1.85112 -2.23186,2.66106 -0.8842,0.80994 -1.85178,1.53037 -2.819,2.08977 -0.96721,0.5594 -1.93432,0.95782 -59.32032,1.12371 -57.38601,0.1659 -171.18783,0.0991 -284.990932,0.0322 -1.174378,-0.45676 -2.347551,-0.91305 -3.397944,-1.62674 -1.050393,-0.71369 -1.976532,-1.68482 -2.752288,-2.62091 -0.775755,-0.93608 -1.400893,-1.83719 -1.912087,-2.8082 -0.511195,-0.97101 -0.908077,-2.01192 -1.084729,-59.26159 -0.176653,-57.24967 -0.132607,-170.70432 -0.08856,-284.160247 0.39453,-1.017204 0.788853,-2.033876 1.318037,-2.897173 0.529184,-0.863297 1.192821,-1.572161 1.876785,-2.231735 0.683964,-0.659573 1.388105,-1.269719 2.333766,-1.849307 0.945661,-0.579588 2.132414,-1.128447 38.500462,-1.329858 36.36805,-0.201411 107.91294,-0.05558 179.46027,0.09026 0,0 2e-5,0 2e-5,0 z"
         id="path325"
         inkscape:path-effect="#path-effect327"
         inkscape:original-d="m 287.78396,81.327199 c 0,0 25.3949,-18.889824 25.3949,-18.889824 0,0 -241.311625,-0.373748 -241.311625,-0.373748 0,0 -6.30695,2.191047 -9.461924,3.28507 -2.647684,1.935909 -5.296261,3.87074 -7.945892,5.80461 -1.605579,1.996531 -3.212093,3.991982 -4.819639,5.986473 -0.926541,1.968307 -1.854044,3.935535 -2.782565,5.901803 -0.448241,1.92355 -0.897464,3.846024 -1.347696,5.767535 -0.01386,113.957022 -0.04459,341.861222 -0.04459,341.861222 0,0 0.833975,3.8359 1.249463,5.75235 0.797397,1.95125 1.593762,3.90143 2.389143,5.85064 1.161585,1.76951 2.322124,3.53795 3.481686,5.30542 1.785571,1.64788 3.57007,3.2947 5.353606,4.94054 1.543251,0.96166 3.08544,1.92228 4.62666,2.88192 1.670316,0.72147 3.339565,1.4419 5.007847,2.16135 1.353126,0.33827 2.705199,0.67552 4.056299,1.01178 114.787407,0.1175 344.352327,0.34951 344.352327,0.34951 0,0 3.88778,-0.97996 5.83016,-1.47144 2.69545,-1.39048 5.38978,-2.7819 8.08317,-4.17435 2.02693,-1.79396 4.05277,-3.58885 6.07766,-5.38477 1.12059,-1.89617 2.24014,-3.79326 3.35871,-5.69139 1.14682,-2.73218 2.29259,-5.46526 3.43738,-8.19939 -0.0124,-1.4471 -0.0257,-2.89513 -0.0401,-4.34419 0.15568,-67.88246 0.46403,-203.6463 0.46403,-203.6463 0,0 -18.88074,24.99176 -18.88074,24.99176 0,0 -0.28802,180.15175 -0.28802,180.15175 0,0 -0.584,2.00919 -0.8775,3.01229 -0.8,0.9006 -1.60097,1.80017 -2.40296,2.69876 -0.96663,0.72147 -1.93422,1.4419 -2.90282,2.16135 -0.96616,0.39944 -1.93327,0.79786 -2.90141,1.19528 -113.80437,-0.0658 -341.409292,-0.20051 -341.409292,-0.20051 0,0 -2.347757,-0.91252 -3.523135,-1.37028 -0.925177,-0.97017 -1.851317,-1.9413 -2.778476,-2.91345 -0.624167,-0.90015 -1.249308,-1.80125 -1.875463,-2.70338 -0.395899,-1.03996 -0.792783,-2.08087 -1.190674,-3.12281 0.04505,-113.45719 0.13214,-340.367767 0.13214,-340.367767 0,0 0.790059,-2.033408 1.183589,-3.051612 0.664664,-0.707892 1.328301,-1.416756 1.990952,-2.126634 0.705168,-0.60917 1.409309,-1.219315 2.112464,-1.830472 1.187801,-0.547881 2.374554,-1.096739 3.560332,-1.646609 71.549763,0.146841 214.641983,0.437513 214.641983,0.437513 z" />
      <path
         style="fill:#3695dc;fill-opacity:1;fill-rule:evenodd;stroke-width:1.3;stroke-linecap:round;stroke-linejoin:round;paint-order:stroke markers fill"
         d="m 155.22331,213.72548 c -0.152,1.40469 -0.19809,3.01775 -0.0735,4.74623 0.12461,1.72847 0.41969,3.57212 0.91332,5.41386 0.49363,1.84174 1.1855,3.68138 2.04316,5.67409 0.85766,1.99271 1.88094,4.13839 3.27363,6.71389 1.3927,2.5755 3.15461,5.5807 4.56044,7.96373 1.40582,2.38304 2.45548,4.14377 3.41607,5.76553 0.9606,1.62176 1.83207,3.10445 2.73039,4.86149 0.89832,1.75705 1.82357,3.78832 2.79524,5.86992 0.97168,2.0816 1.98969,4.21341 2.9963,6.46214 1.00662,2.24873 2.00184,4.61425 3.54278,8.26247 1.54093,3.64822 3.62748,8.5789 5.26711,12.70251 1.63963,4.12362 2.83232,7.43992 3.94759,10.66211 1.11526,3.22218 2.15307,6.35004 3.05124,9.14035 0.89816,2.79031 1.65666,5.24291 2.33703,7.43081 0.68037,2.1879 1.28256,4.11096 1.84964,5.71794 0.56707,1.60699 1.09887,2.89779 1.69688,4.12391 0.598,1.22611 1.26198,2.3875 2.16007,3.54553 0.89809,1.15803 2.02991,2.31282 3.34988,3.26219 1.31997,0.94936 2.82779,1.69367 4.64035,2.46636 1.81257,0.7727 3.92976,1.57386 6.09906,2.24299 2.1693,0.66914 4.39062,1.20637 6.46311,1.68925 2.07249,0.48287 3.99605,0.91139 6.03529,1.4072 2.03923,0.49581 4.194,1.05884 6.60756,1.49438 2.41357,0.43553 5.08586,0.74373 8.5246,0.86035 3.43873,0.11661 7.6438,0.0418 10.33331,-0.30286 2.68951,-0.34466 3.86392,-0.95896 5.12745,-1.89022 1.26354,-0.93125 2.61647,-2.17956 3.86892,-3.53353 1.25244,-1.35397 2.40447,-2.8137 4.12359,-5.0787 1.71912,-2.265 4.00523,-5.33516 6.3002,-8.65112 2.29497,-3.31596 4.59869,-6.87759 6.79958,-10.20721 2.20089,-3.32963 4.29879,-6.42701 7.07366,-10.72213 2.77487,-4.29512 6.22654,-9.78775 8.76123,-13.58831 2.5347,-3.80055 4.15223,-5.90872 6.14597,-8.76342 1.99374,-2.85471 4.36359,-6.45583 6.6974,-9.68922 2.3338,-3.23339 4.63135,-6.09873 6.42299,-8.34686 1.79164,-2.24814 3.07727,-3.87895 5.25502,-6.71523 2.17775,-2.83629 5.2475,-6.87787 7.76641,-10.08768 2.5189,-3.2098 4.4868,-5.58759 6.20815,-7.76789 1.72136,-2.18031 3.19611,-4.16307 4.82577,-6.32877 1.62966,-2.1657 3.4141,-4.51418 5.12178,-6.79162 1.70767,-2.27744 3.33849,-4.48373 4.94014,-6.53893 1.60166,-2.0552 3.17402,-3.95915 4.64637,-5.69694 1.47234,-1.7378 2.84456,-3.30933 5.05961,-5.87711 2.21504,-2.56779 5.27276,-6.13166 9.08701,-10.36968 3.81424,-4.23802 8.38472,-9.14988 12.72574,-13.55538 4.34102,-4.4055 8.45226,-8.3043 11.98872,-11.59272 3.53647,-3.28841 6.49792,-5.96622 9.22013,-8.52689 2.72221,-2.56067 5.20506,-5.00408 7.66219,-7.40819 2.45713,-2.40411 4.88838,-4.76876 7.36546,-7.18397 2.47708,-2.4152 4.99985,-4.88081 7.42532,-7.06921 2.42546,-2.18839 4.75339,-4.09936 7.19231,-6.18219 2.43892,-2.08283 4.98873,-4.33743 7.24496,-6.22928 2.25623,-1.89186 4.21869,-3.42083 6.12057,-4.88932 1.90188,-1.46849 3.74305,-2.87642 5.82259,-4.48455 2.07953,-1.60812 4.39731,-3.41636 7.26259,-5.49226 2.86528,-2.0759 6.27782,-4.4193 9.42395,-6.7475 3.14612,-2.32821 6.02574,-4.64114 8.67729,-6.613352 2.65154,-1.972216 5.07477,-3.603561 7.33015,-5.097796 2.25538,-1.494235 4.34277,-2.851268 6.26008,-4.050702 1.91731,-1.199434 3.66437,-2.241176 5.65492,-3.456719 1.99055,-1.215544 4.22448,-2.604812 5.69756,-3.637773 1.47308,-1.032962 2.18549,-1.709705 2.82188,-2.539578 0.63639,-0.829872 1.19694,-1.813158 1.83703,-3.030673 0.6401,-1.217514 1.3597,-2.669246 1.34231,-3.822821 -0.0174,-1.153575 -0.7729,-2.009574 -1.79593,-2.933836 -1.02303,-0.924262 -2.3137,-1.916533 -4.18099,-2.85649 -1.86729,-0.939957 -4.31118,-1.827128 -7.19457,-2.611156 -2.88339,-0.784029 -6.20607,-1.46467 -9.82635,-1.99129 -3.62028,-0.526621 -7.53787,-0.899061 -11.16432,-1.166438 -3.62645,-0.267378 -6.96152,-0.429628 -10.1986,-0.484926 -3.23707,-0.0553 -6.37589,-0.0036 -8.90894,0.05233 -2.53306,0.05591 -4.46021,0.116014 -6.21416,0.306959 -1.75395,0.190946 -3.3344,0.512843 -5.3374,1.356338 -2.003,0.843494 -4.428,2.208559 -7.49969,3.831916 -3.07169,1.623357 -6.78995,3.504924 -11.21202,6.370746 -4.42206,2.865821 -9.54742,6.715627 -14.56444,10.700547 -5.01702,3.98492 -9.92534,8.104664 -15.34904,12.780156 -5.42371,4.675495 -11.36243,9.906415 -15.30539,13.379615 -3.94295,3.4732 -5.88994,5.1885 -9.16941,8.27112 -3.27948,3.08262 -7.89117,7.53229 -13.32986,12.80542 -5.4387,5.27313 -11.70405,11.36939 -17.10708,16.77124 -5.40302,5.40185 -9.94339,10.10895 -13.75424,14.27408 -3.81086,4.16512 -6.89193,7.78797 -9.86103,11.29461 -2.9691,3.50664 -5.82605,6.89686 -8.79104,10.68188 -2.96499,3.78501 -6.03779,7.96451 -8.90733,11.75099 -2.86953,3.78648 -5.53565,7.17977 -8.26492,10.60894 -2.72926,3.42917 -5.52149,6.89401 -8.9723,11.44341 -3.4508,4.5494 -7.55992,10.183 -10.96002,14.65319 -3.40009,4.4702 -6.09101,7.77681 -8.5768,11.11122 -2.48579,3.3344 -4.76625,6.69627 -6.59307,9.40192 -1.82683,2.70564 -3.19992,4.75488 -4.15697,5.80511 -0.95705,1.05023 -1.49906,1.10172 -1.98553,0.26911 -0.48647,-0.83261 -0.91678,-2.55051 -1.91683,-5.91214 -1.00006,-3.36163 -2.56988,-8.36678 -5.26774,-14.61179 -2.69786,-6.245 -6.52381,-13.72946 -9.87436,-19.54214 -3.35054,-5.81268 -6.22567,-9.95321 -9.8106,-13.89629 -3.58492,-3.94308 -7.87967,-7.68826 -12.1792,-10.34289 -4.29953,-2.65463 -8.60373,-4.21807 -12.49516,-4.74549 -3.89144,-0.52742 -7.3695,-0.0182 -10.53911,0.6879 -3.1696,0.70614 -6.03032,1.60925 -9.29818,2.98251 -3.26786,1.37325 -6.94243,3.21656 -9.85298,5.02478 -2.91054,1.80823 -5.05662,3.58115 -6.72663,5.36882 -1.67002,1.78766 -2.86362,3.58965 -3.58946,5.08898 -0.72584,1.49933 -0.98387,2.69541 -1.13587,4.10011 z"
         id="path383"
         inkscape:path-effect="#path-effect385"
         inkscape:original-d="m 155.11743,213.51614 c -0.0451,1.61406 -0.0912,3.22712 -0.13828,4.83918 0.2961,1.84473 0.59118,3.68838 0.88527,5.53107 0.6929,1.84071 1.38477,3.68035 2.07565,5.51903 1.02432,2.14675 2.0476,4.29242 3.06989,6.43713 1.76298,3.00632 3.52489,6.01152 5.28583,9.01578 1.0507,1.76181 2.10036,3.52254 3.14904,5.28231 0.87251,1.48375 1.74399,2.96644 2.61448,4.44815 0.92629,2.03235 1.85154,4.06363 2.77581,6.09394 1.01905,2.13289 2.03707,4.26469 3.0541,6.39554 0.99626,2.36661 1.99148,4.73213 2.98572,7.09669 2.08764,4.93188 4.17418,9.86256 6.25977,14.79234 1.19375,3.31745 2.38644,6.63376 3.57816,9.94915 1.03885,3.12898 2.07665,6.25684 3.11348,9.38376 0.75953,2.45371 1.51803,4.90631 2.27555,7.35797 0.60322,1.92413 1.20541,3.84719 1.80661,5.76929 0.53283,1.29186 1.06463,2.58266 1.59544,3.87249 0.66501,1.16243 1.32899,2.32382 1.99199,3.48422 1.13287,1.15583 2.26469,2.31062 3.39554,3.46443 1.50888,0.74534 3.0167,1.48964 4.52354,2.23297 2.11828,0.8022 4.23547,1.60337 6.35171,2.40355 2.2224,0.53826 4.44372,1.07549 6.66408,1.61173 1.92463,0.42953 3.84819,0.85804 5.77079,1.28557 2.15585,0.56405 4.31062,1.12708 6.46443,1.68913 2.6734,0.3092 5.34569,0.6174 8.01703,0.9246 4.20625,-0.0738 8.41132,-0.14864 12.61548,-0.22445 1.17546,-0.61333 2.34987,-1.22763 3.5233,-1.84294 1.35398,-1.24735 2.70691,-2.49566 4.05887,-3.74499 1.15307,-1.45878 2.3051,-2.91851 3.45616,-4.37926 2.2872,-3.06928 4.57331,-6.13945 6.85847,-9.21067 2.30482,-3.56078 4.60854,-7.12241 6.91132,-10.68512 2.09899,-3.09651 4.19689,-6.19389 6.29384,-9.29233 3.4528,-5.49185 6.90447,-10.98448 10.35521,-16.47821 1.6186,-2.10726 3.23613,-4.21543 4.8527,-6.32465 2.37096,-3.60027 4.74081,-7.2014 7.10972,-10.80361 2.29864,-2.86445 4.59619,-5.72979 6.89279,-8.59619 1.28668,-1.62988 2.57231,-3.26069 3.85696,-4.89253 3.07087,-4.04075 6.14061,-8.08234 9.20942,-12.125 1.96898,-2.37689 3.93687,-4.75468 5.90381,-7.13352 1.47581,-1.98184 2.95056,-3.9646 4.42435,-5.9484 1.78552,-2.34758 3.56997,-4.69606 5.35345,-7.04559 1.63188,-2.20537 3.26269,-4.41166 4.89254,-6.61899 1.57342,-1.90301 3.14579,-3.80695 4.71718,-5.71192 1.37327,-1.57059 2.74549,-3.14212 4.11674,-4.71468 3.05885,-3.56302 6.11657,-7.12689 9.17336,-10.69183 4.57166,-4.91106 9.14214,-9.82292 13.71171,-14.73588 4.11241,-3.89797 8.22365,-7.79678 12.33398,-11.69667 2.96257,-2.67692 5.92402,-5.35473 8.88454,-8.03359 2.48395,-2.44252 4.9668,-4.88593 7.44871,-7.33039 2.43234,-2.36375 4.8636,-4.7284 7.2939,-7.0941 2.52386,-2.46471 5.04663,-4.93032 7.56845,-7.39699 2.32902,-1.91004 4.65694,-3.82101 6.98392,-5.73302 2.55091,-2.25368 5.10071,-4.50828 7.64957,-6.76392 1.96354,-1.52802 3.92599,-3.05699 5.88748,-4.58698 1.84226,-1.40699 3.68344,-2.81491 5.52365,-4.22387 2.31887,-1.8073 4.63664,-3.61554 6.95346,-5.42481 3.41367,-2.34249 6.82621,-4.68589 10.23781,-7.03033 2.88074,-2.31202 5.76036,-4.62495 8.63903,-6.938916 2.42432,-1.63041 4.84754,-3.26176 7.26981,-4.89413 2.08847,-1.35609 4.17586,-2.71312 6.26229,-4.07118 1.74814,-1.04079 3.4952,-2.08253 5.2413,-3.1253 2.23503,-1.38832 4.46896,-2.77759 6.70193,-4.16789 0.71344,-0.67577 1.42584,-1.35252 2.13726,-2.03027 0.56158,-0.98234 1.12212,-1.96563 1.68169,-2.94994 0.72063,-1.4508 1.44024,-2.90253 2.15887,-4.3553 -0.75454,-0.85503 -1.51005,-1.71103 -2.26657,-2.56804 -1.28972,-0.99131 -2.58039,-1.98358 -3.87208,-2.97687 -2.44299,-0.8862 -4.88687,-1.77338 -7.33181,-2.66157 -3.3218,-0.67967 -6.64448,-1.36031 -9.96822,-2.04196 -3.91674,-0.37146 -7.83433,-0.7439 -11.75299,-1.11734 -3.33421,-0.16126 -6.66928,-0.32351 -10.00542,-0.48676 -3.13794,0.0527 -6.27676,0.10444 -9.41664,0.15517 -1.92622,0.0611 -3.85337,0.12121 -5.78155,0.18032 -1.57951,0.32291 -3.15996,0.64481 -4.74144,0.96571 -2.42409,1.36612 -4.84909,2.73118 -7.27513,4.09527 -3.7174,1.88264 -7.43566,3.76421 -11.155,5.64481 -5.12456,3.85096 -10.24992,7.70076 -15.37638,11.54965 -4.90752,4.12091 -9.81583,8.24066 -14.72525,12.35949 -5.93797,5.232126 -11.87669,10.463056 -17.81654,15.693086 -1.94606,1.71637 -3.89305,3.43167 -5.84107,5.14601 -4.61088,4.45085 -9.22256,8.90053 -13.83535,13.34929 -6.2646,6.0975 -12.52995,12.19376 -18.79643,18.28913 -4.53954,4.70829 -9.07991,9.41539 -13.62137,14.12159 -3.08019,3.62399 -6.16126,7.24684 -9.2434,10.86875 -2.85606,3.39136 -5.71301,6.78158 -8.57101,10.17086 -3.07193,4.18067 -6.14474,8.36017 -9.2186,12.53875 -2.66523,3.39442 -5.33135,6.78771 -7.99853,10.18007 -2.79135,3.46599 -5.58358,6.93084 -8.37688,10.39475 -4.10828,5.63483 -8.2174,11.26842 -12.3276,16.90113 -2.69003,3.30775 -5.38095,6.61436 -8.07292,9.92004 -2.27955,3.36302 -4.56001,6.72489 -6.84151,10.08584 -1.37215,2.05033 -2.74524,4.09957 -4.11936,6.14786 -0.54103,0.0525 -1.08304,0.10397 -1.62606,0.15446 -0.42932,-1.71697 -0.85962,-3.43487 -1.29093,-5.1538 -1.56888,-5.00435 -3.1387,-10.0095 -4.70956,-15.01575 -3.8251,-7.48376 -7.65105,-14.96822 -11.47808,-22.45383 -2.87425,-4.13969 -5.74938,-8.28022 -8.62557,-12.42184 -4.29392,-3.74433 -8.58867,-7.48951 -12.88451,-11.23577 -4.30337,-1.5625 -8.60756,-3.12595 -12.91285,-4.69043 -3.47721,0.51021 -6.95528,1.01939 -10.43443,1.52758 -2.85984,0.90415 -5.72056,1.80727 -8.58234,2.7094 -3.67372,1.84438 -7.34829,3.68768 -11.02393,5.53003 -2.14516,1.77399 -4.29123,3.54692 -6.43835,5.31888 -1.19265,1.80305 -2.38626,3.60503 -3.58088,5.40604 -0.25705,1.19714 -0.51508,2.39322 -0.77412,3.58833 z" />
    </g>
  </g>
</svg>
