<?xml version="1.0" encoding="UTF-8" standalone="no"?>
<!-- Created with Inkscape (http://www.inkscape.org/) -->

<svg
   width="173.2007mm"
   height="115.56382mm"
   viewBox="0 0 173.2007 115.56382"
   version="1.1"
   id="svg5"
   xml:space="preserve"
   inkscape:export-filename="odia2.svg"
   inkscape:export-xdpi="300"
   inkscape:export-ydpi="300"
   xmlns:inkscape="http://www.inkscape.org/namespaces/inkscape"
   xmlns:sodipodi="http://sodipodi.sourceforge.net/DTD/sodipodi-0.dtd"
   xmlns="http://www.w3.org/2000/svg"
   xmlns:svg="http://www.w3.org/2000/svg"><sodipodi:namedview
     id="namedview7"
     pagecolor="#505050"
     bordercolor="#eeeeee"
     borderopacity="1"
     inkscape:showpageshadow="0"
     inkscape:pageopacity="0"
     inkscape:pagecheckerboard="0"
     inkscape:deskcolor="#505050"
     inkscape:document-units="mm"
     showgrid="false" /><defs
     id="defs2" /><g
     inkscape:label="Layer 1"
     inkscape:groupmode="layer"
     id="layer1"
     transform="translate(1332.6953,748.98444)"><path
       id="path12382"
       style="fill:#000000;stroke-width:0.35701"
       d="m -1300.9934,-748.98201 c -7.6022,-0.08 -13.0559,1.8158 -17.1652,5.9423 -5.908,5.9328 -6.9648,14.1882 -2.7187,21.2393 0.6942,1.1529 1.2621,2.157 1.2621,2.2314 0,0.074 -2.8824,0.1352 -6.4052,0.1352 -4.3841,0 -6.484,0.1278 -6.6549,0.4044 -0.1375,0.2224 0.4484,1.8289 1.3018,3.5702 l 1.5515,3.1656 h 4.8029 4.8021 l -0.1457,29.6884 -0.145,29.6876 3.644,0.9804 c 3.1342,0.8429 3.704,0.9088 4.0694,0.4686 0.3255,-0.3923 0.3633,-7.556 0.1625,-30.6687 l -0.2615,-30.1563 h 24.3074 24.3074 v 4.5519 c 0,2.5035 -0.1228,4.7295 -0.2678,4.9466 -0.1712,0.2577 -3.232,0.4819 -8.8193,0.6463 -12.9919,0.3824 -17.3149,1.3554 -20.8948,4.7039 -5.5791,5.2187 -4.4705,14.0437 2.7103,21.572 l 1.9399,2.0333 -1.1583,2.4614 c -1.0293,2.1879 -1.1719,2.8777 -1.2893,6.21 -0.2056,5.8566 1.2345,10.1422 5.0059,14.8968 4.8293,6.0883 16.2879,12.2101 29.9191,15.98462 v 0 c 1.669,0.46216 3.2973,0.85159 3.6183,0.86603 0.3678,0.0165 1.4614,-1.37728 2.9578,-3.76952 1.3058,-2.08759 2.3293,-3.83474 2.2726,-3.88318 -0.057,-0.0485 -2.1101,-0.35554 -4.5645,-0.68266 -13.0375,-1.73752 -22.986,-5.34189 -27.3378,-9.90429 -1.0814,-1.1337 -2.4015,-2.9899 -2.9334,-4.1251 -0.8275,-1.766 -0.9672,-2.529 -0.9672,-5.2847 0,-2.9206 0.1093,-3.4433 1.1749,-5.6076 1.9261,-3.9125 6.5921,-7.3514 12.7046,-9.3639 4.075,-1.3416 10.09,-1.2935 12.0038,0.096 1.478,1.0734 2.2508,3.0076 1.822,4.5603 -0.8639,3.1286 -3.8208,5.7249 -9.9509,8.7384 l -3.3143,1.6295 3.3143,3.5081 3.3149,3.508 1.9607,-0.9922 c 2.9974,-1.5161 5.7148,-3.4722 7.5453,-5.4319 2.0553,-2.2003 2.6215,-3.2772 3.1595,-6.012 0.8924,-4.536 -1.1607,-9.9182 -5.2388,-13.733 -4.1831,-3.9131 -8.9735,-5.3875 -15.0189,-4.623 -5.1573,0.6521 -8.6716,2.0151 -13.2756,5.1501 -3.3002,2.2472 -3.3054,2.2472 -4.7513,-0.4239 -2.5886,-4.7819 -0.8498,-10.1075 3.9781,-12.1844 3.7608,-1.618 6.4324,-1.9516 17.3512,-2.1665 l 10.3533,-0.2036 0.096,-8.836 0.096,-8.836 h 24.2705 24.2704 v 6.0482 c 0,4.4465 -0.1187,6.1246 -0.4463,6.337 -0.2455,0.1588 -4.2215,0.3881 -8.836,0.5097 -6.9293,0.1826 -8.7955,0.3447 -10.7207,0.9337 -4.1287,1.2629 -6.4576,2.5815 -8.9477,5.0658 -2.6605,2.6541 -3.659,4.7737 -4.2666,9.0584 -1.2751,8.9903 4.6069,19.1005 13.7365,23.6115 4.2675,2.1087 7.48,2.7943 13.2332,2.824 4.7563,0.025 5.1621,-0.031 8.3897,-1.1463 l 3.3915,-1.1722 1.2497,1.4009 c 2.6618,2.9847 3.8057,6.9729 2.8532,9.9475 -0.6177,1.929 -2.7964,4.7352 -4.9543,6.38083 -1.0043,0.76595 -1.8262,1.49282 -1.8262,1.61561 0,0.12266 1.7675,1.62929 3.9279,3.34768 l 3.9285,3.12454 1.3967,-1.10659 c 2.5931,-2.0538 4.9508,-4.9548 5.7505,-7.07537 1.1502,-3.0493 0.8855,-6.9364 -0.6869,-10.0842 -1.4352,-2.8729 -2.3732,-4.1349 -5.4645,-7.3493 l -2.4329,-2.5298 1.7516,-1.4769 c 5.6986,-4.8051 4.5141,-13.487 -2.2801,-16.7083 -3.2775,-1.554 -6.5776,-0.9783 -9.1526,1.5968 -1.6342,1.6342 -2.4481,3.4315 -2.4481,5.436 0,1.3772 0.8816,4.0572 1.7348,5.2554 l 0.7516,1.055 -1.6909,0.7224 c -9.0275,3.8574 -18.7024,1.1294 -22.1325,-6.2407 -0.8335,-1.7906 -0.9721,-2.537 -0.9721,-5.4653 -0.013,-3.9796 0.6621,-5.7359 3.1267,-8.1966 3.7873,-3.7815 8.6581,-5.0102 21.1437,-5.335 l 8.2113,-0.2133 0.094,-10.0856 0.095,-10.0855 h 10.7026 10.7026 l 0.092,29.71 0.092,29.7106 3.5569,0.9804 c 2.7148,0.7485 3.6276,0.8774 3.8568,0.546 0.1654,-0.2388 0.2473,-14.0492 0.1825,-30.6904 l -0.1174,-30.2566 h 5.9681 c 3.2824,0 6.0589,-0.1472 6.1696,-0.327 0.1106,-0.1799 -0.4819,-1.7463 -1.3178,-3.4809 l -1.5195,-3.1538 -4.7827,-0.1785 -4.7825,-0.1785 -0.6311,-3.0346 c -2.4982,-12.0071 -10.1691,-21.6241 -19.9711,-25.0368 -3.3432,-1.1639 -9.9688,-1.1654 -12.9241,0 -7.9126,3.113 -10.1264,12.4173 -4.8532,20.3985 1.4499,2.1943 1.7368,2.4217 5.2701,4.1885 2.2446,1.1224 3.8658,1.739 4.0611,1.5438 0.1951,-0.1951 -0.2672,-1.2258 -1.1583,-2.582 -2.7969,-4.2562 -3.6832,-9.8889 -2.052,-13.0435 0.9357,-1.8095 3.0142,-3.5911 4.9326,-4.2283 2.6613,-0.884 7.023,-0.5984 9.6713,0.6331 5.2589,2.4457 9.1104,9.6875 10.0689,18.9328 l 0.2496,2.4098 h -67.459 -67.4597 l -0.7203,-1.6958 c -3.5187,-8.2851 1.8261,-17.3175 11.6998,-19.7723 3.1858,-0.792 10.9814,-0.6144 14.4994,0.3305 8.0022,2.1493 15.2785,6.7089 23.3291,14.6186 2.2502,2.2108 4.187,4.0199 4.3044,4.0199 0.1174,0 0.7298,-0.7317 1.3604,-1.6261 l 1.1456,-1.626 -2.5555,-2.8171 c -5.7584,-6.3463 -14.0143,-12.89 -20.2095,-16.0173 -6.4197,-3.2407 -11.5576,-4.6355 -18.1253,-4.9208 -0.5261,-0.023 -1.0425,-0.036 -1.5493,-0.042 z" /></g></svg>
